<svg width="24" height="24" viewBox="0 0 24 24" fill="none" xmlns="http://www.w3.org/2000/svg">
<g clip-path="url(#clip0_481_440)">
<path d="M12 2C6.4775 2 2 6.4775 2 12C2 17.5225 6.4775 22 12 22C17.5225 22 22 17.5225 22 12C22 6.4775 17.5225 2 12 2ZM10.75 10.75C10.75 10.4185 10.8817 10.1005 11.1161 9.86612C11.3505 9.6317 11.6685 9.5 12 9.5C12.3315 9.5 12.6495 9.6317 12.8839 9.86612C13.1183 10.1005 13.25 10.4185 13.25 10.75V17C13.25 17.3315 13.1183 17.6495 12.8839 17.8839C12.6495 18.1183 12.3315 18.25 12 18.25C11.6685 18.25 11.3505 18.1183 11.1161 17.8839C10.8817 17.6495 10.75 17.3315 10.75 17V10.75ZM12 8.27C11.8358 8.26996 11.6732 8.23758 11.5216 8.17471C11.3699 8.11183 11.2321 8.0197 11.116 7.90357C10.9999 7.78744 10.9079 7.64958 10.8451 7.49787C10.7823 7.34616 10.75 7.18357 10.75 7.01937C10.75 6.85518 10.7824 6.6926 10.8453 6.54093C10.9082 6.38925 11.0003 6.25144 11.1164 6.13536C11.2326 6.01929 11.3704 5.92723 11.5221 5.86443C11.6738 5.80163 11.8364 5.76933 12.0006 5.76938C12.3322 5.76946 12.6502 5.90127 12.8846 6.1358C13.1191 6.37034 13.2507 6.6884 13.2506 7.02C13.2505 7.3516 13.1187 7.66959 12.8842 7.90401C12.6497 8.13843 12.3316 8.27008 12 8.27Z" fill="#D0D0D0"/>
</g>
<defs>
<clipPath id="clip0_481_440">
<rect width="20" height="20" fill="white" transform="translate(2 2)"/>
</clipPath>
</defs>
</svg>
