<svg width="53" height="53" viewBox="0 0 53 53" fill="none" xmlns="http://www.w3.org/2000/svg">
<circle cx="26.5" cy="26.5" r="26.5" fill="#EDE6F8"/>
<path d="M26 29.3333C25.8833 29.3333 25.7667 29.3333 25.65 29.2166L12.8167 24.55C12.35 24.4333 12 23.9666 12 23.5C12 23.0333 12.35 22.5666 12.8167 22.45L25.65 17.7833C25.8833 17.6666 26.2333 17.6666 26.4667 17.7833L39.3 22.45C39.65 22.5666 40 23.0333 40 23.5C40 23.9666 39.65 24.4333 39.1833 24.55L26.35 29.2166C26.2333 29.3333 26.1167 29.3333 26 29.3333ZM16.55 23.5L26 26.8833L35.45 23.5L26 20.1166L16.55 23.5Z" fill="#9954DE"/>
<path d="M34.1667 36.3333H26C25.3 36.3333 24.8333 35.8666 24.8333 35.1666C24.8333 34.4666 25.3 34 26 34H33C32.8833 30.9666 32.1833 28.4 31.0167 26.5333C30.6667 25.95 30.9 25.25 31.3667 24.9C31.95 24.55 32.65 24.7833 33 25.25C34.5167 27.7 35.3333 31.0833 35.3333 35.05C35.3333 35.8666 34.8667 36.3333 34.1667 36.3333Z" fill="#9954DE"/>
<path d="M26 36.3334H17.8333C17.1333 36.3334 16.6667 35.8667 16.6667 35.1667C16.6667 31.2 17.4833 27.8167 19 25.3667C19.35 24.7834 20.05 24.6667 20.6333 25.0167C21.2167 25.3667 21.3333 26.0667 20.9833 26.65C19.8167 28.5167 19.1167 31.0834 19 34.1167H26C26.7 34.1167 27.1667 34.5834 27.1667 35.2834C27.1667 35.9834 26.7 36.3334 26 36.3334ZM37.6667 36.3334C36.9667 36.3334 36.5 35.8667 36.5 35.1667V23.5C36.5 22.8 36.9667 22.3334 37.6667 22.3334C38.3667 22.3334 38.8333 22.8 38.8333 23.5V35.1667C38.8333 35.8667 38.3667 36.3334 37.6667 36.3334Z" fill="#9954DE"/>
</svg>
