<svg width="53" height="53" viewBox="0 0 53 53" fill="none" xmlns="http://www.w3.org/2000/svg">
<circle cx="26.5" cy="26.5" r="26.5" fill="#FFF7E3"/>
<g clip-path="url(#clip0_502_1789)">
<path d="M36.3333 20H31.6667V17.6666C31.6667 16.3716 30.6283 15.3333 29.3333 15.3333H24.6667C23.3717 15.3333 22.3333 16.3716 22.3333 17.6666V20H17.6667C16.3717 20 15.345 21.0383 15.345 22.3333L15.3333 35.1666C15.3333 36.4616 16.3717 37.5 17.6667 37.5H36.3333C37.6283 37.5 38.6667 36.4616 38.6667 35.1666V22.3333C38.6667 21.0383 37.6283 20 36.3333 20ZM24.6667 17.6666H29.3333V20H24.6667V17.6666ZM36.3333 35.1666H17.6667V22.3333H36.3333V35.1666Z" fill="#F1AB01"/>
</g>
<defs>
<clipPath id="clip0_502_1789">
<rect width="28" height="28" fill="white" transform="translate(13 13)"/>
</clipPath>
</defs>
</svg>
