<svg width="53" height="53" viewBox="0 0 53 53" fill="none" xmlns="http://www.w3.org/2000/svg">
<circle cx="26.5" cy="26.5" r="26.5" fill="#DEFFEE"/>
<path fill-rule="evenodd" clip-rule="evenodd" d="M37.626 20.9003L36.8226 19.506C36.1429 18.3263 34.6365 17.9193 33.4552 18.5962C32.8928 18.9275 32.2218 19.0215 31.5901 18.8575C30.9584 18.6934 30.4179 18.2849 30.0877 17.7219C29.8754 17.364 29.7612 16.9564 29.7569 16.5403C29.7761 15.8732 29.5244 15.2267 29.0592 14.7482C28.594 14.2696 27.9549 13.9997 27.2875 14H25.6687C25.0149 14 24.388 14.2605 23.9268 14.724C23.4655 15.1874 23.208 15.8156 23.2111 16.4694C23.1917 17.8194 22.0918 18.9036 20.7417 18.9034C20.3256 18.8991 19.918 18.785 19.5601 18.5726C18.3788 17.8957 16.8724 18.3027 16.1927 19.4824L15.3302 20.9003C14.6513 22.0785 15.0527 23.5839 16.2282 24.2677C16.9922 24.7088 17.4629 25.524 17.4629 26.4063C17.4629 27.2885 16.9922 28.1038 16.2282 28.5449C15.0542 29.224 14.6523 30.7258 15.3302 31.9005L16.1454 33.3065C16.4639 33.8812 16.9983 34.3053 17.6303 34.4849C18.2622 34.6645 18.9398 34.5849 19.5129 34.2636C20.0763 33.9349 20.7476 33.8448 21.3778 34.0134C22.0079 34.182 22.5446 34.5954 22.8685 35.1616C23.0809 35.5194 23.195 35.927 23.1993 36.3431C23.1993 37.707 24.3049 38.8126 25.6687 38.8126H27.2875C28.6467 38.8126 29.7504 37.7142 29.7569 36.3549C29.7538 35.699 30.0129 35.0691 30.4767 34.6053C30.9405 34.1415 31.5705 33.8823 32.2264 33.8855C32.6415 33.8966 33.0474 34.0103 33.4079 34.2163C34.5862 34.8952 36.0916 34.4938 36.7753 33.3184L37.626 31.9005C37.9553 31.3353 38.0457 30.6621 37.8772 30.0301C37.7086 29.398 37.2951 28.8593 36.7281 28.5331C36.1611 28.2069 35.7475 27.6681 35.579 27.0361C35.4104 26.404 35.5008 25.7309 35.8301 25.1657C36.0442 24.7918 36.3542 24.4818 36.7281 24.2677C37.8965 23.5843 38.297 22.0877 37.626 20.9121V20.9003Z" stroke="#00DA71" stroke-width="2.5" stroke-linecap="round" stroke-linejoin="round"/>
<path d="M26.484 29.8088C28.3633 29.8088 29.8867 28.2854 29.8867 26.4061C29.8867 24.5269 28.3633 23.0035 26.484 23.0035C24.6048 23.0035 23.0814 24.5269 23.0814 26.4061C23.0814 28.2854 24.6048 29.8088 26.484 29.8088Z" stroke="#00DA71" stroke-width="2.5" stroke-linecap="round" stroke-linejoin="round"/>
</svg>
