<svg width="53" height="53" viewBox="0 0 53 53" fill="none" xmlns="http://www.w3.org/2000/svg">
<circle cx="26.5" cy="26.5" r="26.5" fill="#EBF1FF"/>
<g clip-path="url(#clip0_502_1782)">
<path fill-rule="evenodd" clip-rule="evenodd" d="M34.2193 33.8H19.7818C19.0052 33.8 18.431 33.0333 18.7247 32.3282C20.0843 29.0678 23.2787 27.2 27 27.2C30.7224 27.2 33.9168 29.0678 35.2764 32.3282C35.5701 33.0333 34.9959 33.8 34.2193 33.8ZM22.5087 20.6C22.5087 18.1734 24.5239 16.2 27 16.2C29.4772 16.2 31.4913 18.1734 31.4913 20.6C31.4913 23.0266 29.4772 25 27 25C24.5239 25 22.5087 23.0266 22.5087 20.6ZM37.9516 33.3996C37.1354 29.7047 34.5812 26.9778 31.2207 25.7403C33.0016 24.3356 34.04 22.064 33.6583 19.5769C33.2161 16.6916 30.7653 14.3828 27.8085 14.0462C23.7253 13.5809 20.2625 16.6939 20.2625 20.6C20.2625 22.679 21.2459 24.5314 22.7804 25.7403C19.4177 26.9778 16.8657 29.7047 16.0484 33.3996C15.7514 34.7427 16.8569 36 18.2594 36H35.7406C37.1442 36 38.2486 34.7427 37.9516 33.3996Z" fill="#428DFF"/>
</g>
<defs>
<clipPath id="clip0_502_1782">
<rect width="22" height="22" fill="white" transform="translate(16 14)"/>
</clipPath>
</defs>
</svg>
