<svg width="53" height="53" viewBox="0 0 53 53" fill="none" xmlns="http://www.w3.org/2000/svg">
<circle cx="26.5" cy="26.5" r="26.5" fill="#EBF1FF"/>
<path d="M20.1667 24.6667H22.5C22.8094 24.6667 23.1062 24.5438 23.325 24.325C23.5438 24.1062 23.6667 23.8095 23.6667 23.5C23.6667 23.1906 23.5438 22.8939 23.325 22.6751C23.1062 22.4563 22.8094 22.3334 22.5 22.3334H20.1667C19.8572 22.3334 19.5605 22.4563 19.3417 22.6751C19.1229 22.8939 19 23.1906 19 23.5C19 23.8095 19.1229 24.1062 19.3417 24.325C19.5605 24.5438 19.8572 24.6667 20.1667 24.6667ZM36.5 17.6667H27.1667V16.5C27.1667 16.1906 27.0438 15.8939 26.825 15.6751C26.6062 15.4563 26.3094 15.3334 26 15.3334C25.6906 15.3334 25.3938 15.4563 25.175 15.6751C24.9563 15.8939 24.8333 16.1906 24.8333 16.5V17.6667H15.5C15.1906 17.6667 14.8938 17.7896 14.675 18.0084C14.4563 18.2272 14.3333 18.524 14.3333 18.8334V30.5C14.3333 31.4283 14.7021 32.3185 15.3585 32.9749C16.0148 33.6313 16.9051 34 17.8333 34H23.1883L20.505 36.6717C20.3957 36.7802 20.3089 36.9092 20.2496 37.0514C20.1904 37.1935 20.1599 37.346 20.1599 37.5C20.1599 37.6541 20.1904 37.8065 20.2496 37.9487C20.3089 38.0909 20.3957 38.2199 20.505 38.3284C20.6135 38.4377 20.7425 38.5245 20.8847 38.5837C21.0268 38.643 21.1793 38.6735 21.3333 38.6735C21.4873 38.6735 21.6398 38.643 21.782 38.5837C21.9242 38.5245 22.0532 38.4377 22.1617 38.3284L24.8333 35.645V37.5C24.8333 37.8095 24.9563 38.1062 25.175 38.325C25.3938 38.5438 25.6906 38.6667 26 38.6667C26.3094 38.6667 26.6062 38.5438 26.825 38.325C27.0438 38.1062 27.1667 37.8095 27.1667 37.5V35.645L29.8383 38.3284C29.9468 38.4377 30.0758 38.5245 30.218 38.5837C30.3602 38.643 30.5127 38.6735 30.6667 38.6735C30.8207 38.6735 30.9732 38.643 31.1153 38.5837C31.2575 38.5245 31.3865 38.4377 31.495 38.3284C31.6044 38.2199 31.6911 38.0909 31.7504 37.9487C31.8096 37.8065 31.8401 37.6541 31.8401 37.5C31.8401 37.346 31.8096 37.1935 31.7504 37.0514C31.6911 36.9092 31.6044 36.7802 31.495 36.6717L28.8117 34H34.1667C35.0949 34 35.9852 33.6313 36.6415 32.9749C37.2979 32.3185 37.6667 31.4283 37.6667 30.5V18.8334C37.6667 18.524 37.5438 18.2272 37.325 18.0084C37.1062 17.7896 36.8094 17.6667 36.5 17.6667ZM35.3333 30.5C35.3333 30.8095 35.2104 31.1062 34.9916 31.325C34.7728 31.5438 34.4761 31.6667 34.1667 31.6667H17.8333C17.5239 31.6667 17.2272 31.5438 17.0084 31.325C16.7896 31.1062 16.6667 30.8095 16.6667 30.5V20H35.3333V30.5ZM20.1667 29.3334H27.1667C27.4761 29.3334 27.7728 29.2105 27.9916 28.9917C28.2104 28.7729 28.3333 28.4761 28.3333 28.1667C28.3333 27.8573 28.2104 27.5605 27.9916 27.3417C27.7728 27.123 27.4761 27 27.1667 27H20.1667C19.8572 27 19.5605 27.123 19.3417 27.3417C19.1229 27.5605 19 27.8573 19 28.1667C19 28.4761 19.1229 28.7729 19.3417 28.9917C19.5605 29.2105 19.8572 29.3334 20.1667 29.3334Z" fill="#428DFF"/>
</svg>
