<svg width="198" height="199" viewBox="0 0 198 199" fill="none" xmlns="http://www.w3.org/2000/svg">
<path d="M90.1302 133C89.9573 133 89.7978 133 89.6149 133C87.6917 132.925 85.803 132.465 84.0609 131.648C82.3187 130.831 80.7585 129.673 79.4727 128.243L51.1072 94C50.3595 93.1909 49.7804 92.2412 49.4038 91.2064C49.0272 90.1716 48.8606 89.0724 48.9137 87.9726C48.9667 86.8729 49.2384 85.7947 49.7129 84.8008C50.1874 83.807 50.8552 82.9173 51.6774 82.1838C52.4996 81.4502 53.4598 80.8873 54.502 80.5279C55.5442 80.1685 56.6476 80.0198 57.7479 80.0905C58.8483 80.1611 59.9235 80.4497 60.9111 80.9394C61.8986 81.4292 62.7787 82.1102 63.5 82.9429L90.2665 115.404L180.922 29.3235C181.71 28.5647 182.641 27.969 183.661 27.5706C184.681 27.1721 185.769 26.9788 186.864 27.0018C187.959 27.0248 189.038 27.2636 190.04 27.7045C191.042 28.1454 191.947 28.7796 192.703 29.5708C193.459 30.362 194.05 31.2946 194.444 32.3149C194.838 33.3352 195.026 34.4231 194.997 35.5162C194.968 36.6092 194.723 37.6858 194.277 38.6841C193.83 39.6824 193.19 40.5827 192.394 41.3333L100.056 129.01C97.3852 131.566 93.8299 132.995 90.1302 133Z" fill="white"/>
<path d="M190.199 103.629C191.202 103.627 192.194 103.837 193.11 104.244C194.027 104.65 194.847 105.246 195.517 105.99C196.187 106.735 196.691 107.612 196.998 108.565C197.305 109.517 197.407 110.523 197.297 111.518C191.674 160.678 149.583 199.043 98.891 199C44.3546 198.957 0 154.693 0 100.297C0 49.0211 39.4018 6.75482 89.5926 2.03148C91.4777 1.85729 93.355 2.4371 94.8115 3.64337C96.268 4.84963 97.1843 6.58354 97.359 8.46364C97.5336 10.3437 96.9523 12.216 95.7428 13.6687C94.5333 15.1213 92.7948 16.0352 90.9097 16.2094C47.9746 20.2681 14.2749 56.4306 14.2749 100.297C14.2749 146.87 52.2689 184.763 98.9698 184.763C142.394 184.763 178.294 151.995 183.109 109.945C183.308 108.207 184.142 106.602 185.451 105.437C186.76 104.273 188.453 103.629 190.207 103.629H190.199Z" fill="white"/>
<circle cx="7" cy="7" r="7" transform="matrix(1 0 0 -1 102 14)" fill="white"/>
</svg>
