<svg width="40" height="26" viewBox="0 0 40 26" fill="none" xmlns="http://www.w3.org/2000/svg">
<path d="M8.30159 0.523254H18.1341C19.5066 0.523254 20.3602 1.64198 20.0401 3.01906L15.4623 22.673C15.1393 24.0453 13.7651 25.1649 12.3916 25.1649H2.56008C1.18948 25.1649 0.333896 24.0453 0.65408 22.673L5.23372 3.01906C5.5539 1.64198 6.92738 0.523254 8.30159 0.523254Z" fill="#E21836"/>
<path d="M17.3151 0.521729H28.6222C29.9945 0.521729 29.3757 1.64045 29.0529 3.01753L24.4759 22.6714C24.1547 24.0437 24.2549 25.1634 22.8798 25.1634H11.5727C10.1975 25.1634 9.34648 24.0437 9.66954 22.6714L14.2463 3.01753C14.5713 1.64045 15.9419 0.521729 17.3151 0.521729Z" fill="#00447C"/>
<path d="M28.174 0.521729H38.0065C39.381 0.521729 40.2346 1.64045 39.9118 3.01753L35.3348 22.6714C35.0117 24.0437 33.6366 25.1634 32.2624 25.1634H22.4345C21.0593 25.1634 20.2064 24.0437 20.5285 22.6714L25.1062 3.01753C25.4264 1.64045 26.7989 0.521729 28.174 0.521729Z" fill="#007B84"/>
<path d="M10.8692 6.82022C9.85811 6.83053 9.5595 6.82022 9.46411 6.7977C9.42744 6.97193 8.74514 10.1194 8.74322 10.122C8.59631 10.7588 8.48942 11.2127 8.12634 11.5058C7.92023 11.6762 7.67962 11.7584 7.40065 11.7584C6.95225 11.7584 6.69102 11.5357 6.64717 11.1135L6.63878 10.9685C6.63878 10.9685 6.77538 10.1155 6.77538 10.1107C6.77538 10.1107 7.49148 7.2425 7.6197 6.86336C7.62641 6.84179 7.62833 6.83053 7.63001 6.82022C6.23615 6.83245 5.98906 6.82022 5.97205 6.7977C5.9627 6.82861 5.92819 7.00644 5.92819 7.00644L5.19699 10.2392L5.1342 10.5134L5.0127 11.4102C5.0127 11.6762 5.06494 11.8933 5.16895 12.0769C5.50208 12.659 6.45232 12.7463 6.98988 12.7463C7.68249 12.7463 8.33221 12.5991 8.77126 12.3305C9.53337 11.8801 9.73277 11.1763 9.9106 10.5507L9.99304 10.2298C9.99304 10.2298 10.7307 7.25089 10.856 6.86336C10.8608 6.84179 10.8628 6.83053 10.8692 6.82022ZM13.3791 9.22338C13.2013 9.22338 12.8763 9.26651 12.5844 9.40959C12.4785 9.46399 12.3783 9.52678 12.2726 9.58933L12.368 9.24495L12.3157 9.18695C11.6967 9.31229 11.5582 9.32907 10.9864 9.40959L10.9384 9.44147C10.872 9.99196 10.8131 10.4059 10.5669 11.4879C10.4732 11.8867 10.3759 12.2893 10.2784 12.6872L10.3048 12.7377C10.8907 12.7068 11.0686 12.7068 11.5778 12.7152L11.6191 12.6704C11.6838 12.3389 11.6921 12.2613 11.8355 11.59C11.9028 11.2717 12.0432 10.5724 12.1125 10.3234C12.2398 10.2645 12.3653 10.2065 12.4852 10.2065C12.7706 10.2065 12.7359 10.4555 12.7248 10.5547C12.7126 10.7212 12.6086 11.2653 12.502 11.7324L12.4308 12.0339C12.3812 12.2565 12.3268 12.4729 12.2772 12.6936L12.2987 12.7377C12.8763 12.7068 13.0524 12.7068 13.5457 12.7152L13.6037 12.6704C13.6928 12.1527 13.7189 12.0142 13.8771 11.2605L13.9567 10.9142C14.1113 10.2364 14.1889 9.89274 14.072 9.61282C13.9483 9.29911 13.6516 9.22338 13.3791 9.22338ZM16.1829 9.93298C15.8759 9.99194 15.6801 10.0312 15.4855 10.0566C15.2926 10.0876 15.1045 10.1156 14.8078 10.1568L14.7843 10.1782L14.7627 10.1952C14.7318 10.4161 14.7102 10.6071 14.6692 10.8317C14.6345 11.0639 14.581 11.3278 14.494 11.7069C14.4267 11.9972 14.3919 12.0983 14.3536 12.2004C14.3162 12.3025 14.275 12.4017 14.1993 12.6871L14.217 12.7135L14.2319 12.7377C14.5091 12.7245 14.6906 12.7152 14.877 12.7135C15.0632 12.7068 15.2562 12.7135 15.5548 12.7152L15.5809 12.6938L15.6089 12.6704C15.6521 12.413 15.6585 12.3437 15.6849 12.2181C15.711 12.0834 15.7561 11.897 15.8666 11.399C15.9188 11.1651 15.977 10.9319 16.0312 10.6932C16.0875 10.4554 16.1465 10.2213 16.2026 9.98738L16.1942 9.9591L16.1829 9.93298ZM16.1895 8.97622C15.9105 8.81157 15.4209 8.86382 15.0913 9.09125C14.7628 9.31413 14.7254 9.63048 15.0034 9.79729C15.2776 9.95738 15.7691 9.90969 16.0958 9.68033C16.4236 9.45266 16.4646 9.13918 16.1895 8.97622ZM17.8765 12.7893C18.4409 12.7893 19.0195 12.6338 19.4549 12.1722C19.79 11.7978 19.9436 11.2409 19.9968 11.0115C20.1701 10.2513 20.0351 9.89639 19.8657 9.68021C19.6083 9.35068 19.1534 9.24499 18.6815 9.24499C18.3978 9.24499 17.722 9.27303 17.194 9.75978C16.8148 10.1109 16.6397 10.5873 16.534 11.0441C16.4273 11.5095 16.3046 12.3474 17.0751 12.6592C17.3129 12.7613 17.6556 12.7893 17.8765 12.7893ZM17.8324 11.0789C17.9626 10.5032 18.1162 10.02 18.5083 10.02C18.8155 10.02 18.8378 10.3795 18.7012 10.9571C18.6768 11.0853 18.5646 11.562 18.4129 11.765C18.307 11.9148 18.1816 12.0056 18.0431 12.0056C18.0019 12.0056 17.7567 12.0056 17.7529 11.6416C17.751 11.4618 17.7876 11.2783 17.8324 11.0789ZM21.4077 12.7153L21.4518 12.6705C21.5143 12.339 21.5246 12.2611 21.6631 11.5901C21.7324 11.2718 21.8757 10.5725 21.9431 10.3235C22.0706 10.2643 22.194 10.2063 22.3176 10.2063C22.6012 10.2063 22.5667 10.4553 22.5554 10.5545C22.5451 10.7213 22.4411 11.2651 22.3325 11.7322L22.2652 12.0337C22.2136 12.2566 22.1576 12.4727 22.1079 12.6937L22.1295 12.7378C22.709 12.7069 22.8784 12.7069 23.3745 12.7153L23.4345 12.6705C23.5215 12.1526 23.5449 12.014 23.7079 11.2605L23.7856 10.914C23.9409 10.2362 24.0195 9.89281 23.9044 9.61289C23.7772 9.29918 23.4786 9.22345 23.2099 9.22345C23.0318 9.22345 22.7052 9.26635 22.4149 9.40966C22.3112 9.46407 22.2072 9.52662 22.1051 9.58941L22.194 9.24502L22.1463 9.18678C21.5275 9.31236 21.3861 9.32914 20.815 9.40966L20.7711 9.44154C20.7019 9.99203 20.6455 10.4057 20.3994 11.488C20.3057 11.8868 20.2084 12.2894 20.1111 12.6872L20.1372 12.7378C20.7242 12.7069 20.8993 12.7069 21.4077 12.7153ZM25.6653 12.7377C25.7017 12.5599 25.9182 11.5058 25.9201 11.5058C25.9201 11.5058 26.1044 10.7325 26.1156 10.7044C26.1156 10.7044 26.1736 10.6239 26.2316 10.592H26.3169C27.122 10.592 28.031 10.592 28.7435 10.0679C29.2283 9.7084 29.5598 9.17755 29.7076 8.53239C29.746 8.37422 29.7743 8.18609 29.7743 7.99795C29.7743 7.75087 29.7247 7.50641 29.5813 7.31541C29.218 6.80709 28.4945 6.79775 27.6593 6.79391C27.6566 6.79391 27.2475 6.79774 27.2475 6.79774C26.1784 6.81093 25.7497 6.80709 25.5735 6.78552C25.5587 6.86341 25.5306 7.00193 25.5306 7.00193C25.5306 7.00193 25.1477 8.77684 25.1477 8.77972C25.1477 8.77972 24.2312 12.5534 24.1881 12.7312C25.1215 12.7199 25.5043 12.7199 25.6653 12.7377ZM26.3749 9.58473C26.3749 9.58473 26.7821 7.81342 26.7802 7.82013L26.7934 7.7293L26.7991 7.66004L26.9619 7.67681C26.9619 7.67681 27.8016 7.74895 27.8213 7.75087C28.1527 7.87908 28.2893 8.20957 28.194 8.64096C28.107 9.0352 27.8512 9.36664 27.5227 9.52674C27.2521 9.66238 26.9206 9.67365 26.5791 9.67365H26.3582L26.3749 9.58473ZM28.9102 11.1117C28.8025 11.5704 28.6789 12.4082 29.4455 12.7068C29.69 12.8108 29.909 12.8418 30.1317 12.8305C30.3668 12.8178 30.5846 12.6999 30.7864 12.5302C30.7682 12.5999 30.75 12.6697 30.7318 12.7397L30.7665 12.7845C31.318 12.7612 31.4891 12.7612 32.0866 12.7658L32.1407 12.7246C32.228 12.2117 32.3102 11.7137 32.5369 10.7325C32.6474 10.2626 32.7576 9.79714 32.871 9.32909L32.8533 9.27756C32.2364 9.39188 32.0715 9.41633 31.4781 9.50045L31.433 9.53711C31.427 9.58481 31.4208 9.63058 31.4151 9.67636C31.3228 9.52729 31.1891 9.40003 30.9827 9.3207C30.7189 9.21693 30.0991 9.35066 29.5663 9.83573C29.192 10.182 29.0122 10.6566 28.9102 11.1117ZM30.2057 11.1397C30.3378 10.5744 30.4895 10.096 30.8825 10.096C31.1311 10.096 31.2619 10.3254 31.2353 10.7165C31.2142 10.814 31.1915 10.9168 31.1644 11.0331C31.1251 11.2011 31.0824 11.3676 31.041 11.5344C30.9988 11.6485 30.9496 11.7561 30.8957 11.8278C30.7946 11.9711 30.554 12.06 30.4154 12.06C30.3761 12.06 30.1336 12.06 30.1252 11.7024C30.1233 11.5244 30.16 11.341 30.2057 11.1397ZM36.9714 9.27299L36.9237 9.21858C36.3133 9.34225 36.2028 9.3619 35.642 9.43763L35.6008 9.47885C35.5989 9.48556 35.5972 9.49587 35.5943 9.50521L35.5924 9.49587C35.1749 10.4591 35.1872 10.2513 34.8473 11.0096C34.8454 10.975 34.8454 10.9535 34.8435 10.9168L34.7584 9.27299L34.705 9.21858C34.0656 9.34225 34.0505 9.3619 33.4599 9.43763L33.4139 9.47885C33.4075 9.4985 33.4075 9.52007 33.4036 9.54356L33.4075 9.55195C33.4813 9.92917 33.4635 9.84505 33.5376 10.4404C33.5721 10.7325 33.6181 11.0263 33.6526 11.3149C33.7109 11.7978 33.7435 12.0355 33.8146 12.7725C33.4158 13.4306 33.3214 13.6796 32.9375 14.2572L32.9401 14.2629L32.6698 14.6905C32.6389 14.7355 32.6108 14.7664 32.5715 14.7796C32.5284 14.8009 32.4723 14.8048 32.3944 14.8048H32.2446L32.022 15.5453L32.7858 15.5585C33.2342 15.5566 33.516 15.3469 33.6677 15.0651L34.148 14.2421H34.1403L34.1909 14.1841C34.514 13.4886 36.9714 9.27299 36.9714 9.27299ZM28.9101 18.9989H28.5861L29.7854 15.0323H30.1832L30.3095 14.6237L30.3217 15.0781C30.3069 15.359 30.5278 15.608 31.1083 15.5668H31.7796L32.0106 14.803H31.758C31.6128 14.803 31.5454 14.7663 31.5538 14.6877L31.5416 14.2254H30.2985V14.2278C29.8966 14.2362 28.6964 14.2664 28.4533 14.3311C28.1593 14.4068 27.8494 14.6297 27.8494 14.6297L27.9711 14.2206H26.8083L26.566 15.0323L25.3507 19.0596H25.1149L24.8836 19.8178H27.1997L27.122 20.0707H28.2633L28.339 19.8178H28.6592L28.9101 18.9989ZM27.9599 15.8383C27.7737 15.8898 27.4271 16.0461 27.4271 16.0461L27.7353 15.0323H28.6592L28.4363 15.771C28.4363 15.771 28.1509 15.7877 27.9599 15.8383ZM27.9776 17.2866C27.9776 17.2866 27.6874 17.323 27.4964 17.3661C27.3082 17.4232 26.9555 17.6029 26.9555 17.6029L27.2737 16.5479H28.2024L27.9776 17.2866ZM27.46 19.0083H26.5332L26.8018 18.1179H27.7257L27.46 19.0083ZM29.6918 16.5479H31.0277L30.8357 17.1696H29.4821L29.2789 17.8493H30.4633L29.5665 19.112C29.5037 19.2048 29.4473 19.2376 29.3848 19.2637C29.322 19.2956 29.2396 19.333 29.1442 19.333H28.8156L28.5898 20.0774H29.4493C29.896 20.0774 30.1598 19.8742 30.3547 19.6074L30.9697 18.7657L31.1017 19.6204C31.1297 19.7805 31.2448 19.8742 31.3227 19.9106C31.4087 19.9537 31.4976 20.0278 31.6232 20.0388C31.7579 20.0446 31.8552 20.0491 31.9199 20.0491H32.3422L32.5957 19.2161H32.4292C32.3336 19.2161 32.1689 19.2 32.1409 19.17C32.1128 19.1336 32.1128 19.0775 32.0977 18.9922L31.9638 18.1357H31.4152L31.6558 17.8493H33.0068L33.2145 17.1696H31.9638L32.1586 16.5479H33.4055L33.6368 15.7813H29.9192L29.6918 16.5479ZM18.4091 19.1814L18.7209 18.1441H20.0024L20.2365 17.3727H18.9538L19.1496 16.7342H20.4031L20.6353 15.9872H17.4991L17.2717 16.7342H17.9842L17.7941 17.3727H17.0797L16.8429 18.1573H17.5552L17.1396 19.5296C17.0836 19.7113 17.166 19.7805 17.2182 19.8649C17.2717 19.9471 17.3258 20.0015 17.4476 20.0324C17.5732 20.0604 17.6592 20.0772 17.7762 20.0772H19.2208L19.4782 19.2226L18.8379 19.3106C18.7142 19.3106 18.3717 19.2957 18.4091 19.1814ZM18.5561 14.2159L18.2313 14.8029C18.1618 14.9311 18.0993 15.0106 18.043 15.0473C17.9934 15.0782 17.8951 15.0912 17.7527 15.0912H17.5833L17.3568 15.842H17.9196C18.1901 15.842 18.3979 15.7428 18.4971 15.6932C18.6038 15.6362 18.6318 15.6688 18.7143 15.5892L18.9043 15.4245H20.6615L20.8947 14.6428H19.6084L19.833 14.2159H18.5561ZM21.1502 19.1965C21.1203 19.1533 21.1419 19.0773 21.1876 18.9192L21.6679 17.3295H23.3764C23.6254 17.3259 23.8052 17.323 23.9221 17.3147C24.0477 17.3015 24.1843 17.2567 24.3332 17.1761C24.4868 17.0918 24.5654 17.0029 24.6318 16.9008C24.7058 16.7989 24.8247 16.576 24.9268 16.2324L25.5305 14.2207L23.7575 14.231C23.7575 14.231 23.2115 14.3115 22.9712 14.4004C22.7286 14.4996 22.3821 14.7767 22.3821 14.7767L22.5422 14.2252H21.4469L19.9136 19.3105C19.8592 19.508 19.8228 19.6513 19.8144 19.7374C19.8115 19.8301 19.9313 19.9219 20.009 19.9912C20.1008 20.0604 20.2364 20.0492 20.3666 20.0604C20.5034 20.0707 20.698 20.0772 20.9667 20.0772H21.8083L22.0667 19.2048L21.3132 19.276C21.2327 19.276 21.1745 19.2329 21.1502 19.1965ZM21.9778 16.2558H23.7723L23.6583 16.6134C23.6422 16.6218 23.6039 16.5957 23.4212 16.6172H21.8673L21.9778 16.2558ZM22.3373 15.0566H24.1469L24.0168 15.4873C24.0168 15.4873 23.1639 15.4789 23.0273 15.504C22.4262 15.608 22.0751 15.9292 22.0751 15.9292L22.3373 15.0566ZM23.6984 17.8108C23.6836 17.8643 23.6601 17.8969 23.6273 17.9213C23.5908 17.9448 23.5319 17.9532 23.4439 17.9532H23.1882L23.2033 17.5177H22.1397L22.0966 19.6466C22.0949 19.8002 22.1097 19.8891 22.2221 19.9603C22.3345 20.0492 22.6808 20.0605 23.147 20.0605H23.8135L24.0541 19.2636L23.4739 19.2955L23.281 19.3068C23.2546 19.2955 23.2294 19.2852 23.2014 19.2572C23.1769 19.233 23.1357 19.2478 23.1424 19.0942L23.147 18.5485L23.7555 18.5233C24.0841 18.5233 24.2245 18.4164 24.3443 18.3146C24.4586 18.217 24.496 18.1049 24.5392 17.9532L24.6413 17.47H23.8051L23.6984 17.8108Z" fill="#FEFEFE"/>
</svg>
