<svg width="44" height="15" viewBox="0 0 44 15" fill="none" xmlns="http://www.w3.org/2000/svg">
<path fill-rule="evenodd" clip-rule="evenodd" d="M10.9407 14.5908H7.16096L4.32665 3.7777C4.19212 3.2803 3.90648 2.84057 3.4863 2.63332C2.43772 2.11249 1.28224 1.69799 0.0217285 1.48893V1.07263H6.11053C6.95088 1.07263 7.58114 1.69799 7.68618 2.42427L9.15678 10.2241L12.9346 1.07263H16.6093L10.9407 14.5908ZM18.7102 14.5908H15.1405L18.0799 1.07263H21.6495L18.7102 14.5908ZM26.2677 4.81757C26.3728 4.08949 27.003 3.67319 27.7383 3.67319C28.8938 3.56866 30.1525 3.77771 31.2029 4.29674L31.8332 1.38622C30.7827 0.969917 29.6273 0.760864 28.5787 0.760864C25.1141 0.760864 22.5931 2.63333 22.5931 5.23207C22.5931 7.20906 24.3788 8.24712 25.6393 8.87247C27.003 9.49603 27.5282 9.91233 27.4232 10.5359C27.4232 11.4712 26.3728 11.8875 25.3242 11.8875C24.0637 11.8875 22.8031 11.5757 21.6495 11.0549L21.0193 13.9672C22.2798 14.4863 23.6435 14.6953 24.904 14.6953C28.7888 14.798 31.2029 12.9274 31.2029 10.1196C31.2029 6.58371 26.2677 6.37646 26.2677 4.81757ZM43.6956 14.5908L40.8613 1.07263H37.8169C37.1867 1.07263 36.5564 1.48893 36.3463 2.11249L31.0979 14.5908H34.7725L35.506 12.6156H40.021L40.4412 14.5908H43.6956ZM38.3421 4.71305L39.3907 9.80781H36.4514L38.3421 4.71305Z" fill="#172B85"/>
</svg>
