<svg width="11" height="14" viewBox="0 0 11 14" fill="none" xmlns="http://www.w3.org/2000/svg">
<path d="M9.32106 7.08774L5.59264 11.1486C4.57033 12.262 2.94666 12.262 1.98448 11.1486C0.962174 10.0351 0.962174 8.26668 1.98448 7.21873L6.79535 1.97896C7.39671 1.38949 8.29875 1.38949 8.90011 1.97896C9.50147 2.63394 9.50147 3.68189 8.90011 4.27136L4.75073 8.79066C4.57033 8.98715 4.26965 8.98715 4.08924 8.79066C3.90883 8.59417 3.90883 8.26668 4.08924 8.07019L7.15617 4.72984C7.39671 4.46785 7.39671 4.07487 7.15617 3.81288C6.91563 3.55089 6.55481 3.55089 6.31427 3.81288L3.24734 7.21873C2.58584 7.9392 2.58584 9.05265 3.24734 9.77312C3.90883 10.4281 4.93114 10.4281 5.59264 9.77312L9.74201 5.25382C10.8245 4.07487 10.8245 2.24095 9.74201 1.06201C8.65957 -0.116941 6.97576 -0.116941 5.89332 1.06201L1.08245 6.30177C0.360815 7.08774 0 8.13569 0 9.18364C0 11.476 1.6838 13.2445 3.78856 13.2445C4.81087 13.2445 5.71291 12.786 6.43454 12.0655L10.163 8.0047C10.4035 7.74271 10.4035 7.34972 10.163 7.08774C9.92242 6.82575 9.5616 6.82575 9.32106 7.08774Z" fill="#41BF97"/>
</svg>
