<svg width="33" height="33" viewBox="0 0 33 33" fill="none" xmlns="http://www.w3.org/2000/svg">
<circle cx="16.5" cy="16.5" r="15.5" fill="#32B28A" stroke="white" stroke-width="2"/>
<path d="M14.025 9.07501C13.1134 9.07501 12.375 9.81339 12.375 10.725V11.55H9.9C8.98837 11.55 8.25 12.2884 8.25 13.2V22.275C8.25 23.1866 8.98837 23.925 9.9 23.925H23.1C24.0116 23.925 24.75 23.1866 24.75 22.275V13.2C24.75 12.2884 24.0116 11.55 23.1 11.55H20.625V10.725C20.625 9.81339 19.8866 9.07501 18.975 9.07501H14.025ZM16.5 13.2C18.7745 13.2 20.625 15.0505 20.625 17.325C20.625 19.5995 18.7745 21.45 16.5 21.45C14.2255 21.45 12.375 19.5995 12.375 17.325C12.375 15.0505 14.2255 13.2 16.5 13.2ZM22.275 13.2C22.7304 13.2 23.1 13.5696 23.1 14.025C23.1 14.4804 22.7304 14.85 22.275 14.85C21.8196 14.85 21.45 14.4804 21.45 14.025C21.45 13.5696 21.8196 13.2 22.275 13.2ZM16.5 14.85C15.8436 14.85 15.2141 15.1108 14.7499 15.5749C14.2858 16.0391 14.025 16.6686 14.025 17.325C14.025 17.9814 14.2858 18.6109 14.7499 19.0751C15.2141 19.5393 15.8436 19.8 16.5 19.8C17.1564 19.8 17.7859 19.5393 18.2501 19.0751C18.7142 18.6109 18.975 17.9814 18.975 17.325C18.975 16.6686 18.7142 16.0391 18.2501 15.5749C17.7859 15.1108 17.1564 14.85 16.5 14.85Z" fill="white"/>
</svg>
