<svg width="28" height="23" viewBox="0 0 28 23" fill="none" xmlns="http://www.w3.org/2000/svg">
<path fill-rule="evenodd" clip-rule="evenodd" d="M5.85003 1.73432e-07H5.81771C4.95253 -6.85992e-06 4.25757 -1.25224e-05 3.6954 0.0459185C3.11749 0.0931352 2.6142 0.192604 2.14992 0.429164C1.40903 0.806667 0.806667 1.40903 0.429164 2.14992C0.192604 2.6142 0.0931353 3.11749 0.0459186 3.6954C-1.22989e-05 4.25756 -6.74508e-06 4.95253 1.6909e-07 5.81771V5.81771V5.85002V6C1.6909e-07 6.41421 0.335787 6.75 0.75 6.75C1.16421 6.75 1.5 6.41421 1.5 6V5.85002C1.5 4.94506 1.50058 4.31144 1.54094 3.81754C1.58057 3.3324 1.65481 3.04848 1.76567 2.83091C1.99937 2.37226 2.37226 1.99937 2.83091 1.76567C3.04848 1.65481 3.3324 1.58057 3.81755 1.54094C4.31144 1.50058 4.94506 1.5 5.85003 1.5H7.25C7.66421 1.5 8 1.16421 8 0.75C8 0.335787 7.66421 1.73432e-07 7.25 1.73432e-07H5.85003ZM21.65 1.5C22.5549 1.5 23.1886 1.50058 23.6825 1.54094C24.1676 1.58057 24.4515 1.65481 24.6691 1.76567C25.1277 1.99937 25.5006 2.37226 25.7343 2.83091C25.8452 3.04848 25.9194 3.3324 25.9591 3.81754C25.9994 4.31144 26 4.94506 26 5.85002V6C26 6.41421 26.3358 6.75 26.75 6.75C27.1642 6.75 27.5 6.41421 27.5 6V5.85002V5.81769C27.5 4.95252 27.5 4.25756 27.4541 3.6954C27.4069 3.11749 27.3074 2.6142 27.0708 2.14992C26.6933 1.40903 26.091 0.806667 25.3501 0.429164C24.8858 0.192604 24.3825 0.0931352 23.8046 0.0459185C23.2424 -1.25224e-05 22.5475 -6.85992e-06 21.6823 1.73432e-07H21.65H20.25C19.8358 1.73432e-07 19.5 0.335787 19.5 0.75C19.5 1.16421 19.8358 1.5 20.25 1.5H21.65ZM1.5 16.5C1.5 16.0858 1.16421 15.75 0.75 15.75C0.335787 15.75 1.6909e-07 16.0858 1.6909e-07 16.5V16.65V16.6823C-6.74505e-06 17.5475 -1.24075e-05 18.2424 0.0459186 18.8046C0.0931353 19.3825 0.192604 19.8858 0.429164 20.3501C0.806667 21.091 1.40903 21.6933 2.14992 22.0708C2.61419 22.3074 3.11749 22.4069 3.6954 22.4541C4.25756 22.5 4.95252 22.5 5.81769 22.5H5.85003H7.25C7.66421 22.5 8 22.1642 8 21.75C8 21.3358 7.66421 21 7.25 21H5.85003C4.94506 21 4.31144 20.9994 3.81755 20.9591C3.3324 20.9194 3.04848 20.8452 2.83091 20.7343C2.37226 20.5006 1.99937 20.1277 1.76567 19.6691C1.65481 19.4515 1.58057 19.1676 1.54094 18.6825C1.50058 18.1886 1.5 17.5549 1.5 16.65V16.5ZM27.5 16.5C27.5 16.0858 27.1642 15.75 26.75 15.75C26.3358 15.75 26 16.0858 26 16.5V16.65C26 17.5549 25.9994 18.1886 25.9591 18.6825C25.9194 19.1676 25.8452 19.4515 25.7343 19.6691C25.5006 20.1277 25.1277 20.5006 24.6691 20.7343C24.4515 20.8452 24.1676 20.9194 23.6825 20.9591C23.1886 20.9994 22.5549 21 21.65 21H20.25C19.8358 21 19.5 21.3358 19.5 21.75C19.5 22.1642 19.8358 22.5 20.25 22.5H21.65H21.6823C22.5475 22.5 23.2424 22.5 23.8046 22.4541C24.3825 22.4069 24.8858 22.3074 25.3501 22.0708C26.091 21.6933 26.6933 21.091 27.0708 20.3501C27.3074 19.8858 27.4069 19.3825 27.4541 18.8046C27.5 18.2424 27.5 17.5475 27.5 16.6823V16.65V16.5ZM4.77159 7.5C4.79853 7.05876 4.85909 6.74572 4.99524 6.47852C5.21095 6.05516 5.55516 5.71095 5.97852 5.49524C6.45982 5.25 7.08988 5.25 8.35 5.25H19.15C20.4101 5.25 21.0402 5.25 21.5215 5.49524C21.9448 5.71095 22.289 6.05516 22.5048 6.47852C22.6409 6.74572 22.7015 7.05876 22.7284 7.5H4.77159ZM4.75 9.75H22.75V13.65C22.75 14.9101 22.75 15.5402 22.5048 16.0215C22.289 16.4448 21.9448 16.789 21.5215 17.0048C21.0402 17.25 20.4101 17.25 19.15 17.25H8.35C7.08988 17.25 6.45982 17.25 5.97852 17.0048C5.55516 16.789 5.21095 16.4448 4.99524 16.0215C4.75 15.5402 4.75 14.9101 4.75 13.65V9.75ZM10.75 14.25H6.25V15.75H10.75V14.25Z" fill="#929DA9"/>
</svg>
