<svg width="16" height="15" viewBox="0 0 16 15" fill="none" xmlns="http://www.w3.org/2000/svg">
<path d="M10.6335 12.0885L9.60242 11.0174L9.54647 10.9615L8.53138 9.94639C8.3703 9.97461 8.20731 9.99064 8.04382 9.99435C7.67309 9.99964 7.30502 9.9312 6.96098 9.79298C6.61695 9.65477 6.30382 9.44954 6.0398 9.18924C5.77578 8.92894 5.56613 8.61876 5.42305 8.27672C5.27997 7.93468 5.20631 7.56761 5.20635 7.19685C5.21006 7.03335 5.22609 6.87037 5.25431 6.70928L3.65573 5.11071L2.40885 3.89579C1.50671 4.74581 0.733871 5.72331 0.114897 6.7972C0.0447446 6.91871 0.0078125 7.05654 0.0078125 7.19685C0.0078125 7.33715 0.0447446 7.47498 0.114897 7.59649C0.618447 8.46771 3.31204 12.7918 8.01984 12.7918H8.21966C9.10491 12.7656 9.9787 12.5843 10.8014 12.2563L10.6335 12.0885ZM5.27829 2.2093L7.51629 4.4473C7.67737 4.41908 7.84036 4.40305 8.00385 4.39934C8.7458 4.39934 9.45735 4.69408 9.98198 5.21871C10.5066 5.74335 10.8014 6.4549 10.8014 7.19685C10.7976 7.36034 10.7816 7.52333 10.7534 7.68441L12.8955 9.8265L13.5669 10.4979C14.4803 9.65011 15.264 8.6725 15.8928 7.59649C15.963 7.47498 15.9999 7.33715 15.9999 7.19685C15.9999 7.05654 15.963 6.91871 15.8928 6.7972C15.3813 5.91 12.5678 1.45797 7.78804 1.60184C6.9028 1.6281 6.02901 1.80935 5.20635 2.13736L5.27829 2.2093ZM14.9656 13.0236L13.9266 11.9926L12.328 10.394L4.71878 2.77679L3.54383 1.60184L2.17705 0.235063C2.10253 0.160539 2.01406 0.101423 1.91669 0.061091C1.81932 0.0207588 1.71495 0 1.60956 0C1.50417 0 1.39981 0.0207588 1.30244 0.061091C1.20507 0.101423 1.11659 0.160539 1.04207 0.235063C0.89156 0.385572 0.807005 0.589705 0.807005 0.802557C0.807005 1.01541 0.89156 1.21954 1.04207 1.37005L2.83247 3.20042L4.23122 4.5592L10.074 10.394L10.13 10.4499L11.201 11.521L11.6726 11.9926L13.8306 14.1586C13.905 14.2335 13.9934 14.293 14.0908 14.3336C14.1882 14.3742 14.2926 14.3951 14.3981 14.3951C14.5037 14.3951 14.6081 14.3742 14.7055 14.3336C14.8029 14.293 14.8913 14.2335 14.9656 14.1586C15.0405 14.0843 15.1 13.9959 15.1406 13.8985C15.1812 13.8011 15.2021 13.6967 15.2021 13.5911C15.2021 13.4856 15.1812 13.3811 15.1406 13.2837C15.1 13.1863 15.0405 13.0979 14.9656 13.0236Z" fill="#BABABA"/>
</svg>
