<svg width="23" height="23" viewBox="0 0 23 23" fill="none" xmlns="http://www.w3.org/2000/svg">
<path d="M4.87705 13.2959L4.11105 16.1539L1.31105 16.2129C0.464325 14.636 0.0144558 12.8766 0.000342639 11.0869C-0.0137705 9.29712 0.408298 7.53087 1.23005 5.94086L3.72205 6.39786L4.81505 8.87386C4.32416 10.3101 4.34607 11.872 4.87705 13.2939V13.2959Z" fill="#FBBB00"/>
<path d="M21.8091 8.94586C22.182 10.9072 22.0141 12.933 21.3234 14.8062C20.6326 16.6793 19.4451 18.3292 17.8882 19.5789L14.7491 19.4189L14.3051 16.6459C15.6013 15.8861 16.5972 14.7041 17.1261 13.2979H11.2441V8.94586H21.8102H21.8091Z" fill="#518EF8"/>
<path d="M17.887 19.5789C16.6285 20.5896 15.1629 21.311 13.5943 21.6918C12.0257 22.0727 10.3925 22.1036 8.81058 21.7824C7.22867 21.4613 5.73684 20.7959 4.44092 19.8335C3.145 18.8712 2.07677 17.6354 1.31201 16.2139L4.87701 13.2959C5.21168 14.188 5.73721 14.9964 6.41684 15.6642C7.09647 16.3321 7.9138 16.8435 8.81167 17.1625C9.70954 17.4816 10.6663 17.6007 11.615 17.5114C12.5637 17.4222 13.4814 17.1268 14.304 16.6459L17.887 19.5789Z" fill="#28B446"/>
<path d="M18.0219 2.53286L14.4589 5.45086C13.6242 4.93085 12.6829 4.60578 11.7051 4.49983C10.7273 4.39389 9.73822 4.5098 8.81143 4.83894C7.88464 5.16809 7.04401 5.70198 6.35208 6.40091C5.66015 7.09984 5.13473 7.94581 4.81493 8.87586L1.23193 5.94186C1.98762 4.48251 3.0607 3.21102 4.3723 2.22085C5.68391 1.23067 7.20071 0.546956 8.81125 0.219956C10.4218 -0.107044 12.0851 -0.0690224 13.679 0.331227C15.273 0.731476 16.7569 1.48378 18.0219 2.53286Z" fill="#F14336"/>
</svg>
