<svg width="13" height="16" viewBox="0 0 13 16" fill="none" xmlns="http://www.w3.org/2000/svg">
<path d="M10.5625 5.6V4C10.5625 1.76 8.775 0 6.5 0C4.225 0 2.4375 1.76 2.4375 4V5.6C1.05625 5.6 0 6.64 0 8V13.6C0 14.96 1.05625 16 2.4375 16H10.5625C11.9438 16 13 14.96 13 13.6V8C13 6.64 11.9438 5.6 10.5625 5.6ZM4.0625 4C4.0625 2.64 5.11875 1.6 6.5 1.6C7.88125 1.6 8.9375 2.64 8.9375 4V5.6H4.0625V4ZM7.39375 10.8L7.3125 10.88V12C7.3125 12.48 6.9875 12.8 6.5 12.8C6.0125 12.8 5.6875 12.48 5.6875 12V10.88C5.2 10.4 5.11875 9.68 5.60625 9.2C6.09375 8.72 6.825 8.64 7.3125 9.12C7.8 9.52 7.88125 10.32 7.39375 10.8Z" fill="#45C29B"/>
</svg>
