<svg width="164" height="160" viewBox="0 0 164 160" fill="none" xmlns="http://www.w3.org/2000/svg">
<g filter="url(#filter0_d_538_620)">
<path d="M125.9 119.195C125.9 119.195 132.267 123.85 131.566 127.796C131.566 127.796 131.247 129.02 126.803 128.546L122.755 127.56L122.16 123.671L123.836 119.829L125.9 119.195Z" fill="#638221"/>
<path d="M70.1923 113.553C70.1923 113.553 64.9405 112.735 65.4334 119.139C65.4334 119.139 65.6798 123.311 71.0123 122.817C72.1777 122.696 73.3185 122.378 74.3936 121.877C75.6541 121.308 78.2072 120.648 80.1786 123.377C81.0116 124.684 82.1915 125.686 83.5622 126.251C84.9328 126.815 86.4296 126.916 87.8542 126.539C88.7483 126.327 89.6095 125.976 90.4114 125.498C92.2616 124.436 97.1175 121.925 98.2446 124.156C98.2446 124.156 98.7859 122.209 99.4565 121.387C99.4565 121.387 96.8024 113.251 89.2399 115.915L81.5158 115.115L74.123 114.769L70.1923 113.553Z" fill="#88BD33"/>
<path d="M105.142 58.6513C105.142 58.6513 108.626 61.5901 106.115 70.0032L104.342 69.1073L103.24 65.8191L104.342 60.9853L105.142 58.6513Z" fill="#7B0A42"/>
<path d="M55.9408 56.7596C56.9857 56.7596 57.8328 55.9125 57.8328 54.8676C57.8328 53.8227 56.9857 52.9756 55.9408 52.9756C54.8959 52.9756 54.0488 53.8227 54.0488 54.8676C54.0488 55.9125 54.8959 56.7596 55.9408 56.7596Z" fill="#BA1C29"/>
<path d="M112.714 127.927C112.714 127.927 112.157 129.774 118.103 130.547C118.103 130.547 126.726 128.552 123.209 123.468L117.169 122.979L114.079 124.686L112.714 127.927Z" fill="#FFC30B"/>
<path d="M120.746 115.411L125.944 118.672C125.944 118.672 122.59 119.619 123 122.425C123 122.425 117.355 122 116.007 122.979L114.592 119.352C114.592 119.352 120.01 117.142 120.746 115.411Z" fill="#92A755"/>
<path d="M115.103 119.551L116.484 123.653C116.484 123.653 113.051 129.846 107.656 130.547C107.656 130.547 98.1243 129.712 99.6146 123.09C99.6146 123.09 100.273 117.702 108.241 119.6C108.241 119.607 112.244 120.144 115.103 119.551Z" fill="#90CD4C"/>
<path d="M63.5427 102.495L54.2272 107.004C54.2272 107.004 52.5426 114.803 59.5283 115.541C59.5283 115.541 62.1748 115.993 66.8752 113.285C66.8752 113.285 70.3661 111.97 72.6148 116.188C72.6148 116.188 77.7536 122.137 83.9802 118.445C83.9802 118.445 87.8729 115.541 91.3271 115.695C91.3271 115.695 96.7866 115.247 99.6766 121.087C99.6766 121.087 101.239 118.134 106.662 119.075C106.662 119.075 115.816 122.195 120.268 114.235C120.268 114.235 117.139 111.036 107.385 107.303C107.385 107.303 100.078 105.25 96.7866 101.848L91.2703 104.175L83.282 100.484C83.282 100.484 76.1746 100.239 75.9757 100.28C75.7768 100.322 72.079 104.014 72.079 104.014L67.2609 105.366L63.5427 102.495Z" fill="url(#paint0_linear_538_620)"/>
<path d="M63.5087 88.135C63.5087 88.135 67.2435 95.3996 64.3206 103.427C64.3206 103.427 64.1177 108.703 70.3004 107.721C70.3004 107.721 72.0663 107.559 75.6428 104.913C75.6428 104.913 79.7348 100.615 85.3167 103.427C85.3167 103.427 92.4657 110.814 97.5645 102.786C97.5645 102.786 93.8459 95.424 94.1585 91.6983L88.2884 93.1107L76.1624 88.135L67.5724 87.0311L63.5087 88.135Z" fill="#43B7CF"/>
<path d="M99.4565 83.6052C99.4565 83.6052 95.7273 93.9211 87.2567 92.588C87.2567 92.588 84.9905 92.4729 78.0567 88.7434C78.0567 88.7434 70.9261 85.0931 63.5087 87.1563C63.5087 87.1563 69.2705 80.5978 77.442 79.463C77.4502 79.4829 92.4448 83.9584 99.4565 83.6052Z" fill="#47C0D2"/>
<path d="M63.0767 87.0316C63.0767 87.0316 58.7812 81.866 57.8328 76.8596C57.8328 76.8596 61.5785 72.3429 65.8341 71.7757C65.8341 71.7757 73.2815 69.7601 77.577 73.1875C77.577 73.1875 80.458 77.0555 84.351 77.9082C84.351 77.9082 90.7265 79.3649 94.8746 75.1256C94.8746 75.1256 99.6563 70.5272 101.892 70.0008L104.282 68.1117L104.944 68.5891C105.179 69.7039 105.194 70.8556 104.989 71.9767C104.784 73.0977 104.362 74.1655 103.749 75.1174C103.749 75.1174 103.079 76.9331 100.561 77.741L98.0385 83.3512C98.0385 83.3512 94.5319 86.7011 87.5946 83.8735L80.3066 80.4461C79.0887 79.8695 77.7436 79.6329 76.4077 79.7605C75.0717 79.888 73.7925 80.3752 72.6997 81.1724L63.272 87.0316H63.0767Z" fill="#212863"/>
<path d="M54.0489 69.0578C54.0489 69.0578 53.965 74.7206 58.4481 77.4259C58.4481 77.4259 62.6833 73.1521 68.0223 71.9725C68.0223 71.9725 75.141 70.5836 79.4522 75.4215C79.4522 75.4215 85.1472 82.1185 92.9017 78.2721C93.584 77.887 94.2354 77.4424 94.8494 76.943C95.1408 76.6955 95.4161 76.4271 95.6732 76.1395C96.4731 75.2548 98.8726 72.7204 101.564 71.2118L103.144 70.4938C103.144 70.4938 106.031 69.6903 104.848 65.8867L104.616 65.3567C104.616 65.3567 97.8168 70.9126 94.5214 68.8911C94.5214 68.8911 87.6027 63.5831 83.4115 64.4165C83.4115 64.4165 74.5891 69.8185 72.1336 70.1989C72.1336 70.1989 68.0383 71.699 63.7791 68.2031C63.7671 68.2031 57.8442 62.1343 54.0489 69.0578Z" fill="#7B52A4"/>
<path d="M53.4004 69.9215C53.4004 69.9215 50.6538 66.4458 53.3244 62.7644C53.6627 62.2834 54.0961 61.8966 54.5907 61.6343C55.0853 61.372 55.6276 61.2413 56.175 61.2524C57.4336 61.345 58.6478 61.8079 59.6943 62.5944C59.6943 62.5944 63.8142 65.5154 67.4977 62.1113C67.4977 62.1113 73.7155 58.4567 77.3189 58.6669C77.3189 58.6669 79.1727 58.3225 81.4068 60.8677C82.8928 62.609 84.8141 63.8093 86.9199 64.3121C89.3119 64.8823 91.8012 64.6552 94.0787 63.659C94.0787 63.659 101.866 58.5059 104.244 59.2619C104.244 59.2619 105.69 60.8767 104.893 64.0705C104.512 65.5246 103.673 66.7753 102.531 67.5909C100.765 68.8792 97.7261 70.7937 95.532 70.5835C95.532 70.5835 93.1938 70.409 90.3031 68.1948C88.3517 66.563 86.0896 65.4563 83.6929 64.9607C83.6929 64.9607 82.3036 64.746 80.2857 66.5174C80.2857 66.5174 76.2459 69.9662 72.1701 71.3395C72.1701 71.3395 67.4576 73.0169 64.8031 70.5432C64.8031 70.5432 61.0556 66.6024 58.2169 66.7813C58.2169 66.7902 54.5095 66.9647 53.4004 69.9215Z" fill="#BD1066"/>
<path d="M103.815 45.4853C102.584 49.8538 98.0692 46.8537 98.0692 46.8537C93.0899 42.565 89.5265 43.6342 89.5265 43.6342C84.4881 43.9654 79.4616 50.1171 79.4616 50.1171C76.1499 53.3526 74.7419 50.3086 74.7419 50.3086C74.1159 49.2667 73.2385 48.4037 72.1925 47.8012C71.1465 47.1987 69.9664 46.8764 68.7635 46.8648C67.5607 46.8532 66.3748 47.1527 65.3177 47.735C64.2606 48.3174 63.3672 49.1633 62.7219 50.1929C62.0765 51.2226 61.7005 52.4021 61.6292 53.6201C61.5579 54.8381 61.7938 56.0545 62.3146 57.1544C62.8353 58.2542 63.6238 59.2014 64.6056 59.9064C65.5873 60.6115 66.73 61.0511 67.9258 61.1839C70.7537 61.6308 73.6327 59.628 73.6327 59.628C79.2138 57.1745 80.9247 60.3661 80.9247 60.3661C85.6917 66.2386 92.7713 63.8449 92.7713 63.8449C99.3553 60.1387 104 59.2451 104 59.2451C106.651 55.3753 103.815 45.4853 103.815 45.4853Z" fill="#BA1C29"/>
<path d="M82.2449 47.8456C82.2449 47.8456 79.7902 49.8565 78.7168 44.3455C78.7168 44.3455 77.6989 39.8061 83.3141 37.5194C83.3141 37.5194 86.1922 36.2084 87.967 38.7242C88.4929 39.4311 89.1943 39.9909 90.0029 40.3492C90.8115 40.7076 91.6998 40.8522 92.5814 40.7691C93.5219 40.6582 94.4198 40.317 95.1944 39.7764C96.2739 39.0415 97.2257 38.1374 98.0126 37.0994C98.2734 36.7528 98.604 36.4638 98.9834 36.2509C99.7746 35.8266 101.075 35.5551 102.067 37.5236C103.29 39.7529 104.292 42.0944 105.06 44.5152C105.06 44.5152 106.044 50.5565 100.745 48.9062C99.7204 48.4098 98.755 47.8008 97.8672 47.0904C97.8672 47.0904 93.1331 42.8479 87.21 44.9055C87.2057 44.9055 84.0496 46.2504 82.2449 47.8456Z" fill="#F35E1E"/>
<path d="M80.9695 28.6747L81.0028 28.6005C81.0028 28.6005 82.7807 25.6929 85.5474 26.6992C85.5474 26.6992 90.5739 28.6334 94.3956 30.2872L97.9017 32.1101C97.9017 32.1101 100.477 33.2772 98.9984 35.6445C98.9984 35.6445 98.6121 36.6508 96.8341 35.8878C96.8341 35.8878 94.2087 34.964 88.1105 36.9601C87.599 37.1385 87.1019 37.3549 86.6233 37.6076C86.0002 37.9169 84.729 38.1891 83.1754 36.5147C83.1754 36.5147 79.6984 33.1411 77.3596 32.6792C77.3596 32.6792 71.6352 32.3246 69.8822 33.1948C69.8822 33.1948 68.3452 34.1103 67.5891 33.0381C67.4108 32.7948 67.3084 32.5049 67.2943 32.2043C67.2803 31.9038 67.3553 31.6058 67.5102 31.3471C67.747 30.9718 68.1998 30.646 69.068 30.8399C69.3991 30.9185 69.715 31.0508 70.0027 31.2317C71.1177 31.8473 72.3903 32.1241 73.6624 32.0276C74.571 32.1358 75.4898 32.1261 76.3958 31.9988C77.3853 31.893 78.3292 31.53 79.1322 30.9463C79.9352 30.3627 80.569 29.5792 80.9695 28.6747Z" fill="#D97D34"/>
<path d="M82.2742 126.463C81.4984 127.007 79.8268 127.933 78.9347 126.71C78.9347 126.71 77.6082 124.015 80.6296 124.206C81.058 124.236 81.4728 124.365 81.8398 124.581C84.1228 125.866 86.8182 126.285 89.4031 125.758C89.4031 125.758 96.695 121.004 98.5373 123.932C98.5373 123.932 99.0377 126.86 99.4566 127.157C99.4566 127.157 97.3388 129.309 95.1474 130.257C94.5844 130.495 93.9677 130.589 93.3564 130.53C92.7451 130.471 92.1598 130.261 91.6566 129.92C90.6236 129.249 89.7072 128.424 88.9416 127.475C88.6689 127.139 88.3286 126.86 87.9414 126.654C87.5541 126.449 87.1277 126.321 86.6881 126.279C85.6602 126.174 84.3609 126.058 83.4766 126.065C83.0437 126.079 82.6249 126.217 82.2742 126.463Z" fill="#FFC409"/>
<path d="M72.9688 128.655C74.0137 128.655 74.8608 127.808 74.8608 126.763C74.8608 125.718 74.0137 124.871 72.9688 124.871C71.9239 124.871 71.0768 125.718 71.0768 126.763C71.0768 127.808 71.9239 128.655 72.9688 128.655Z" fill="#FFC409"/>
<path d="M76.7527 5.75667C79.3323 5.04801 82.2631 9.2151 82.4286 9.45963C82.0275 9.11773 81.6531 8.7301 81.3104 8.30184C79.6916 6.1609 78.0445 5.67682 76.7527 5.75667Z" fill="#EBC332"/>
<path d="M82.4286 9.45966C87.6207 11.9557 93.6541 11.4778 97.5645 10.726C89.6435 12.2997 84.5953 10.5372 82.4286 9.45966Z" fill="#EBC332"/>
<path d="M101.348 9.09269C102.351 8.40773 108.003 5.00341 112.7 11.352C112.261 11.1531 111.867 10.8139 111.553 10.3655C111.553 10.3655 108.441 5.37144 101.348 9.09269Z" fill="#EBC332"/>
<path d="M42.6969 25.2733C45.4574 24.3311 48.8613 24.5937 50.2648 24.7624C48.5116 25.2974 46.8127 25.8725 45.1683 26.4878C44.573 25.9746 43.7187 25.5547 42.6969 25.2733Z" fill="#EBC332"/>
<path d="M27.8866 46.931C27.3549 47.8447 21.7517 50.269 21.7517 50.269C17.7927 52.1925 16.7416 50.1062 16.7416 50.1062C16.4524 49.0974 15.8505 48.2114 15.0262 47.581C14.2018 46.9506 13.1993 46.6098 12.1691 46.6097C11.611 46.6063 11.0569 46.7053 10.5331 46.9017C10.9421 45.8795 11.4043 44.8656 11.8705 43.8683C12.2601 43.9572 12.664 43.9578 13.0538 43.87C13.4436 43.7823 13.8098 43.6083 14.1265 43.3604C14.4432 43.1125 14.7028 42.7967 14.8868 42.4353C15.0708 42.0739 15.1748 41.6758 15.1915 41.2689C15.1907 40.8778 15.1039 40.4918 14.9376 40.1394C14.7713 39.7871 14.5296 39.4772 14.2304 39.2327C17.6687 32.9887 21.9351 27.2586 26.9091 22.2047C27.0928 22.6151 27.4243 22.9376 27.8348 23.1055C28.2453 23.2733 28.7034 23.2735 29.1141 23.1062C29.5248 22.9388 29.8566 22.6166 30.0407 22.2064C30.2249 21.7962 30.2473 21.3295 30.1033 20.9029C30.9182 20.8137 31.7387 20.79 32.5572 20.8319C35.8292 21.4328 38.7166 24.6164 38.7166 24.6164L38.9129 24.8042C37.7171 25.0788 36.6458 25.7538 35.8697 26.7217C35.0937 27.6897 34.6575 28.8948 34.6308 30.145C34.6406 31.0708 34.8826 31.9786 35.3336 32.782C35.7846 33.5854 36.4297 34.2576 37.2075 34.7347C35.8442 36.1868 34.549 37.7028 33.3221 39.2827L34.1114 38.1645C33.9723 38.3147 32.2137 40.1298 30.7781 37.8641C30.6922 37.693 30.5982 37.522 30.5 37.3592C30.4875 37.3393 30.4766 37.3183 30.4673 37.2966C29.7792 36.1859 28.7893 35.3033 27.6181 34.7566C26.447 34.2098 25.1452 34.0225 23.8715 34.2174C22.5977 34.4122 21.4071 34.981 20.4447 35.8542C19.4823 36.7274 18.7897 37.8674 18.4513 39.1352C18.1129 40.403 18.1434 41.7439 18.539 42.9944C18.9345 44.2448 19.6782 45.3509 20.6792 46.1777C21.6802 47.0045 22.8954 47.5163 24.1766 47.6508C25.4578 47.7853 26.7497 47.5366 27.8948 46.9351L27.8866 46.931Z" fill="#EBC332"/>
<path d="M80.5366 135.419V151.359C38.7426 151.359 4.85722 117.337 4.85722 75.3663C4.84939 67.6169 6.02301 59.912 8.33733 52.5192C8.68565 53.1302 9.16459 53.6561 9.73966 54.059C10.3147 54.4618 10.9716 54.7316 11.663 54.8489C12.3544 54.9662 13.0631 54.928 13.738 54.7372C14.413 54.5464 15.0373 54.2076 15.5662 53.7453C15.6802 53.7453 15.7942 53.6595 15.9041 53.4265C16.0932 53.224 16.2661 53.0067 16.421 52.7767C17.3449 52.0573 18.7696 52.4456 18.7696 52.4456L18.9894 52.4783C20.9797 52.887 23.2388 55.7766 23.2388 55.7766L28.1028 45.7795L28.1232 45.7345C28.3162 45.6359 28.5037 45.5267 28.6848 45.4075C26.6627 48.925 25.0029 52.6404 23.7313 56.496C20.7627 65.5216 19.9691 75.1256 21.4156 84.5191C22.8622 93.9125 26.5076 102.827 32.0524 110.531C37.5972 118.235 44.8832 124.508 53.3117 128.834C61.7402 133.161 71.0707 135.417 80.5366 135.419Z" fill="#EBC332"/>
<path d="M160 74.9735L147.385 98.383L134.999 74.9735H139.363C139.362 60.247 133.881 46.0476 123.987 35.1384C114.092 24.2292 100.492 17.3906 85.8331 15.9535L86.6122 16.0221C86.5678 15.6185 85.7362 14.8597 85.7362 14.8597C83.5442 13.5399 82.9104 15.6911 82.9104 15.6911L85.0338 15.8808C83.6007 15.7597 82.1554 15.6952 80.6941 15.679C78.9097 13.0757 77.4161 15.679 77.4161 15.679H78.7281C70.2748 15.8565 61.9583 17.8467 54.3408 21.5152C51.3737 18.5608 43.7358 15.679 43.7358 15.679C37.8256 12.3492 36.1988 17.6365 36.1988 17.6365C35.1088 19.251 31.4997 19.7353 29.9011 19.8685C29.7714 19.737 29.6198 19.6291 29.453 19.5496C38.9054 10.8995 50.4201 4.81956 62.8951 1.89166C62.875 3.64737 63.3594 8.67637 69.6288 7.91758C71.1707 7.6286 72.6563 7.09445 74.0291 6.33542C73.6197 6.63939 73.2856 7.03327 73.0525 7.48672C72.8194 7.94017 72.6936 8.44108 72.6847 8.95082C72.6528 9.68054 72.7981 10.4071 73.1081 11.0685C73.4181 11.7299 73.8837 12.3064 74.465 12.7488C75.6398 13.6448 77.4887 14.2987 79.9392 12.8336C79.9392 12.8336 82.325 11.1223 83.9761 12.8336L87.9162 16.1472C87.9162 16.1472 98.3113 17.5518 103.164 20.0259C103.434 20.1631 103.705 20.3004 103.971 20.4295L105.889 21.261C105.889 21.261 108.888 22.1489 111.884 18.8191C111.884 18.8191 121.762 26.8106 126.316 18.9321C126.804 18.291 127.211 17.5914 127.527 16.8495C136.151 23.8818 143.099 32.7469 147.866 42.8004C152.633 52.854 155.1 63.8433 155.087 74.9695L160 74.9735Z" fill="#EBC332"/>
<path d="M114.577 9.06248C114.598 9.35834 114.556 9.65551 114.455 9.93219C114.354 10.2089 114.196 10.4581 113.992 10.6615C113.968 10.685 113.942 10.7061 113.913 10.7243L113.846 10.7745C113.751 10.8408 113.651 10.8982 113.546 10.9461H113.507C112.885 11.1527 112.217 11.1439 111.6 10.921C106.886 5.70126 101.17 8.50995 100.152 9.07085L100.033 9.13783C99.9859 9.13783 99.9306 9.18805 99.8596 9.22154H99.8359C98.924 9.64012 98.0436 9.99173 97.2028 10.2806C97.0883 10.3224 96.9659 10.3601 96.8436 10.3978L96.4172 10.5275C92.8643 11.5614 87.4125 12.2019 82.7108 8.78622C82.549 8.58111 79.683 5.08594 77.1604 5.68033H77.0656H77.0104C76.7268 5.70268 76.4455 5.75029 76.1695 5.82265C75.9663 5.87665 75.766 5.94232 75.5695 6.01938H75.5418L75.3602 6.09473L75.2694 6.13659L75.1471 6.19519L75.0681 6.23704C74.8326 6.35409 74.6079 6.49423 74.397 6.65563C73.0546 7.4428 71.6018 7.99678 70.094 8.29647C63.9633 9.08341 63.4895 3.86787 63.5093 2.04703C80.7713 -2.22766 98.9082 0.24086 114.592 8.99969L114.577 9.06248Z" fill="#937711"/>
<path d="M97.5645 10.726C89.6435 12.2997 84.5953 10.5372 82.4286 9.45966C87.612 11.9557 93.6541 11.4778 97.5645 10.726Z" fill="#937711"/>
<path d="M127.836 17.1472C127.521 17.8893 127.114 18.589 126.625 19.2303C122.072 27.1105 112.195 19.1173 112.195 19.1173C109.2 22.4478 106.201 21.5596 106.201 21.5596L104.284 20.728C104.005 20.6069 103.735 20.4697 103.476 20.3243C98.6326 17.8497 88.2307 16.4448 88.2307 16.4448L84.2629 13.1103C82.5958 11.3824 80.2264 13.1103 80.2264 13.1103C77.7763 14.5757 75.9276 13.9177 74.753 13.0255C74.1718 12.583 73.7062 12.0064 73.3963 11.3448C73.0863 10.6833 72.941 9.95657 72.973 9.22669C72.9818 8.71684 73.1076 8.21583 73.3406 7.76228C73.5737 7.30873 73.9078 6.91476 74.3171 6.61073C74.4785 6.52192 74.636 6.42099 74.7893 6.32007L74.8257 6.29585C74.862 6.27163 74.9024 6.25548 74.9387 6.2353L75.0033 6.19896L75.084 6.15859L75.2091 6.10208L75.302 6.0617L75.4877 5.98904H75.5159C75.8049 5.88888 76.1002 5.80796 76.3999 5.74682L76.634 5.70645H76.6663L76.8641 5.68223H76.9206H77.0376H77.1143C78.3939 5.61764 80.0408 6.00922 81.6715 7.74108C82.0141 8.08752 82.3884 8.40109 82.7896 8.67766C84.8078 10.1068 89.4699 12.4442 96.8041 10.357L97.24 10.2319C97.3652 10.1956 97.4903 10.1592 97.6073 10.1189C98.5249 9.83398 99.424 9.49288 100.3 9.09751H100.324L100.477 9.03291H100.501L100.623 8.96833C107.937 6.02941 111.137 9.97353 111.137 9.97353C111.461 10.3277 111.867 10.5955 112.32 10.7527L112.449 10.8899C113.056 11.0133 113.683 10.9743 114.27 10.7769H114.31C114.417 10.7307 114.52 10.6753 114.617 10.6114L114.686 10.5629C114.714 10.5454 114.741 10.5251 114.766 10.5024C114.987 10.3207 115.163 10.09 115.279 9.82867C115.395 9.56728 115.449 9.28239 115.436 8.99658C119.829 11.2957 123.983 14.026 127.836 17.1472Z" fill="#C8A217"/>
<path d="M97.5645 10.726C89.6435 12.2997 84.5953 10.5372 82.4286 9.45966C87.612 11.9557 93.6541 11.4778 97.5645 10.726Z" fill="#C8A217"/>
<path d="M86.2126 17.028L85.4197 16.947L84.598 16.8613L82.4286 16.6231C82.4286 16.6231 83.0778 14.0838 85.3046 15.6417C85.3046 15.6703 86.1674 16.5373 86.2126 17.028Z" fill="#C8A217"/>
<path d="M27.561 45.4202C25.681 49.0172 24.138 52.8166 22.9559 56.7594C22.9559 56.7594 20.4244 53.1065 18.5438 52.6509L18.3394 52.6174C18.3394 52.6174 17.015 52.2204 16.1561 52.956C16.0121 53.1912 15.8514 53.4135 15.6755 53.6206C15.5734 53.8588 15.4674 53.9549 15.3615 53.9466C14.8698 54.4193 14.2893 54.7657 13.6619 54.9609C13.0344 55.156 12.3756 55.195 11.7328 55.0751C11.0901 54.9552 10.4794 54.6793 9.94479 54.2673C9.41017 53.8554 8.96492 53.3176 8.64111 52.6927C9.31971 50.3103 10.0979 47.9795 10.9758 45.7002C11.4604 45.5034 11.9731 45.4043 12.4894 45.4076C13.4421 45.415 14.367 45.7631 15.1256 46.3998C15.8841 47.0365 16.4355 47.9275 16.6972 48.9394C16.6972 48.9394 17.6886 51.0292 21.3363 49.1358L21.3742 49.1149C21.7791 48.8892 25.5063 46.7994 26.9896 45.8423H27.0085C27.2026 45.7181 27.3873 45.5769 27.561 45.4202Z" fill="#DBAD26"/>
<path d="M33.237 38.009L32.4841 39.0862V39.1107C30.7874 41.3701 29.2452 43.7519 27.8693 46.2386C27.6957 46.3576 27.516 46.4665 27.3309 46.565C26.4392 47.0492 25.4489 47.3011 24.4442 47.2994C23.3431 47.3015 22.2604 47.0032 21.3032 46.434C20.3459 45.8648 19.5472 45.0443 18.9858 44.0535C18.4244 43.0627 18.1197 41.9359 18.102 40.7843C18.0842 39.6328 18.3539 38.4963 18.8844 37.4871C19.4149 36.4779 20.1879 35.6308 21.1271 35.0295C22.0663 34.4283 23.1391 34.0936 24.2398 34.0585C25.3404 34.0235 26.4308 34.2893 27.4032 34.8297C28.3756 35.3701 29.1964 36.1664 29.7847 37.14C29.7935 37.1612 29.804 37.1817 29.8159 37.2012C29.9095 37.3603 29.9992 37.5276 30.0811 37.6949C31.427 39.9308 33.1044 38.1559 33.237 38.009Z" fill="#DBAD26"/>
<path d="M44.5888 27.2329C42.0025 29.2654 39.5899 31.549 37.3804 34.0558C36.7008 33.6097 36.1371 32.9812 35.743 32.2301C35.3489 31.4789 35.1375 30.6302 35.1289 29.7647C35.1522 28.5958 35.5334 27.4691 36.2115 26.5642C36.8896 25.6592 37.8258 25.0281 38.8707 24.7714C39.2973 24.655 39.7354 24.5961 40.1752 24.5959C41.0481 24.5924 41.9081 24.827 42.6768 25.2785C43.4652 25.728 44.1262 26.4037 44.5888 27.2329Z" fill="#DBAD26"/>
<path d="M54.0487 21.5607C52.5497 22.2485 51.0886 22.9961 49.6655 23.8035C48.4862 23.5418 45.6126 23.1344 43.2853 24.596C42.4397 24.1633 41.4938 23.9385 40.5336 23.9418C40.0499 23.942 39.568 23.9985 39.0987 24.11L38.91 23.9418C38.91 23.9418 36.1582 21.0897 32.9898 20.5514C32.203 20.5138 31.4144 20.535 30.6311 20.6149C30.7695 20.9971 30.748 21.4153 30.571 21.7827C30.3939 22.1502 30.075 22.4389 29.6803 22.5888C29.2855 22.7388 28.8453 22.7385 28.4507 22.5882C28.0561 22.4378 27.7375 22.1489 27.5609 21.7812C28.2973 21.0859 29.0482 20.4056 29.8134 19.7402C29.9758 19.8138 30.1235 19.9137 30.2498 20.0355C31.8222 19.9122 35.3209 19.4748 36.3823 17.9684C36.3823 17.9684 37.9548 13.0715 43.7217 16.1554C43.7256 16.1442 51.1633 18.8132 54.0487 21.5607Z" fill="#DBAD26"/>
<path d="M14.3171 40.297C14.3076 40.7881 14.2483 41.2687 14.1435 41.7049C14.0386 42.1411 13.8908 42.5222 13.7104 42.8214C13.5299 43.1206 13.3213 43.3306 13.0992 43.4365C12.8772 43.5424 12.647 43.5417 12.4251 43.4345C12.8445 41.5308 13.2927 39.6659 13.7695 37.8395C13.94 38.1346 14.0777 38.5086 14.1724 38.9339C14.2672 39.3592 14.3166 39.825 14.3171 40.297Z" fill="#DBAD26"/>
</g>
<defs>
<filter id="filter0_d_538_620" x="0.857178" y="0" width="163.143" height="159.359" filterUnits="userSpaceOnUse" color-interpolation-filters="sRGB">
<feFlood flood-opacity="0" result="BackgroundImageFix"/>
<feColorMatrix in="SourceAlpha" type="matrix" values="0 0 0 0 0 0 0 0 0 0 0 0 0 0 0 0 0 0 127 0" result="hardAlpha"/>
<feOffset dy="4"/>
<feGaussianBlur stdDeviation="2"/>
<feComposite in2="hardAlpha" operator="out"/>
<feColorMatrix type="matrix" values="0 0 0 0 0 0 0 0 0 0 0 0 0 0 0 0 0 0 0.25 0"/>
<feBlend mode="normal" in2="BackgroundImageFix" result="effect1_dropShadow_538_620"/>
<feBlend mode="normal" in="SourceGraphic" in2="effect1_dropShadow_538_620" result="shape"/>
</filter>
<linearGradient id="paint0_linear_538_620" x1="54.0486" y1="110.676" x2="120.264" y2="110.676" gradientUnits="userSpaceOnUse">
<stop stop-color="#18BA80"/>
<stop offset="1" stop-color="#119361"/>
</linearGradient>
</defs>
</svg>
