<svg width="17" height="17" viewBox="0 0 17 17" fill="none" xmlns="http://www.w3.org/2000/svg">
<g clip-path="url(#clip0_464_275)">
<path d="M16.155 15.0119L16.155 15.0119C16.2681 15.1249 16.345 15.269 16.3762 15.4258C16.4074 15.5826 16.3913 15.7451 16.3301 15.8928C16.2689 16.0405 16.1653 16.1667 16.0324 16.2555C15.8995 16.3443 15.7433 16.3917 15.5834 16.3917C15.5834 16.3917 15.5834 16.3917 15.5833 16.3917L15.5833 16.2917C15.4903 16.2918 15.3982 16.2735 15.3122 16.2379C15.2263 16.2023 15.1482 16.15 15.0826 16.0842L16.155 15.0119ZM16.155 15.0119L12.1979 11.0548M16.155 15.0119L12.0643 11.0626M13.5583 7.08337C13.5583 3.50738 10.6595 0.608374 7.08334 0.608374C3.50734 0.608374 0.608344 3.50738 0.608344 7.08337C0.608344 10.6594 3.50734 13.5584 7.08334 13.5584C8.57989 13.5584 9.9581 13.0505 11.0547 12.1978L15.0117 16.1548L13.4583 7.08337M13.5583 7.08337H13.4583M13.5583 7.08337C13.5583 7.08332 13.5583 7.08327 13.5583 7.08322L13.4583 7.08337M13.5583 7.08337C13.5606 8.52271 13.0812 9.92051 12.1979 11.0548M13.4583 7.08337C13.4606 8.52987 12.9688 9.93377 12.0643 11.0626M12.1979 11.0548L12.1351 10.9919L12.0643 11.0626M12.1979 11.0548C12.1796 11.0784 12.1611 11.1018 12.1424 11.1251L12.0643 11.0626M7.08334 11.9417C4.40015 11.9417 2.22501 9.76656 2.22501 7.08337C2.22501 4.40019 4.40015 2.22504 7.08334 2.22504C9.76671 2.22504 11.9417 4.40018 11.9417 7.08337C11.9417 9.76656 9.76671 11.9417 7.08334 11.9417Z" fill="#32B28A" stroke="#32B28A" stroke-width="0.2"/>
</g>
<defs>
<clipPath id="clip0_464_275">
<rect width="17" height="17" fill="white"/>
</clipPath>
</defs>
</svg>
