<svg width="39" height="40" viewBox="0 0 39 40" fill="none" xmlns="http://www.w3.org/2000/svg">
<path opacity="0.1" d="M38.25 20C38.25 30.6495 29.8376 39.25 19.5 39.25C9.16245 39.25 0.75 30.6495 0.75 20C0.75 9.3505 9.16245 0.75 19.5 0.75C29.8376 0.75 38.25 9.3505 38.25 20Z" stroke="#040415" stroke-width="1.5"/>
<path fill-rule="evenodd" clip-rule="evenodd" d="M19.2295 12.8572C15.5326 12.8572 12.5357 15.863 12.5357 19.5709C12.5357 23.2788 15.5326 26.2847 19.2295 26.2847C20.8106 26.2847 22.2637 25.7348 23.409 24.8154L25.5847 26.9919L25.6426 27.0419C25.8446 27.1918 26.131 27.1748 26.3138 26.991C26.5148 26.7888 26.5144 26.4614 26.3128 26.2598L24.1627 24.1088C25.2559 22.9139 25.9232 21.3206 25.9232 19.5709C25.9232 15.863 22.9263 12.8572 19.2295 12.8572ZM19.2295 13.8913C22.3569 13.8913 24.8922 16.4341 24.8922 19.5709C24.8922 22.7077 22.3569 25.2506 19.2295 25.2506C16.102 25.2506 13.5667 22.7077 13.5667 19.5709C13.5667 16.4341 16.102 13.8913 19.2295 13.8913Z" fill="#838383"/>
</svg>
